# This file uses centimeters as units for non-parametric coordinates.

mtllib PlatformUV.mtl
g default
v -4.956927 0.000000 5.081534
v 5.081534 0.000000 5.081534
v -4.956927 1.061618 5.081534
v 5.081534 1.061618 5.081534
v -4.956927 1.061618 -5.034951
v 5.081534 1.061618 -5.034951
v -4.956927 0.000000 -5.034951
v 5.081534 0.000000 -5.034951
vt 0.212308 0.994181
vt 0.212308 0.501872
vt 0.264372 0.501872
vt 0.264372 0.994181
vt 0.001868 0.001992
vt 0.494178 0.001992
vt 0.494178 0.498128
vt 0.001868 0.498128
vt 0.270125 0.994182
vt 0.270125 0.501872
vt 0.322190 0.501872
vt 0.322190 0.994182
vt 0.443578 0.501872
vt 0.935888 0.501872
vt 0.935888 0.998008
vt 0.443578 0.998008
vt 0.385761 0.998008
vt 0.385761 0.501872
vt 0.437825 0.501872
vt 0.437825 0.998008
vt 0.327943 0.998008
vt 0.327943 0.501872
vt 0.380007 0.501872
vt 0.380007 0.998008
vn 0.000000 0.000000 1.000000
vn 0.000000 0.000000 1.000000
vn 0.000000 0.000000 1.000000
vn 0.000000 0.000000 1.000000
vn 0.000000 1.000000 0.000000
vn 0.000000 1.000000 0.000000
vn 0.000000 1.000000 0.000000
vn 0.000000 1.000000 0.000000
vn 0.000000 0.000000 -1.000000
vn 0.000000 0.000000 -1.000000
vn 0.000000 0.000000 -1.000000
vn 0.000000 0.000000 -1.000000
vn 0.000000 -1.000000 0.000000
vn 0.000000 -1.000000 0.000000
vn 0.000000 -1.000000 0.000000
vn 0.000000 -1.000000 0.000000
vn 1.000000 0.000000 0.000000
vn 1.000000 0.000000 0.000000
vn 1.000000 0.000000 0.000000
vn 1.000000 0.000000 0.000000
vn -1.000000 0.000000 0.000000
vn -1.000000 0.000000 0.000000
vn -1.000000 0.000000 0.000000
vn -1.000000 0.000000 0.000000
s 1
g pCube1
usemtl initialShadingGroup
f 1/1/1 2/2/2 3/4/3
f 3/4/3 2/2/2 4/3/4
s 2
f 3/5/5 4/6/6 5/8/7
f 5/8/7 4/6/6 6/7/8
s 3
f 5/9/9 6/10/10 7/12/11
f 7/12/11 6/10/10 8/11/12
s 4
f 7/13/13 8/14/14 1/16/15
f 1/16/15 8/14/14 2/15/16
s 5
f 2/17/17 8/18/18 4/20/19
f 4/20/19 8/18/18 6/19/20
s 6
f 7/21/21 1/22/22 5/24/23
f 5/24/23 1/22/22 3/23/24
